<svg xmlns="http://www.w3.org/2000/svg" xml:space="preserve" width="675.7" height="612" viewBox="0 0 178.8 161.9"><g fill="#ffeed2"><path d="M89.1.2s29.4-2.6 38.6 12.7c9.2 15.4 1.7-.3 1.7-.3s23.8-18 41.8 2.4c18 20.4-.6 45.3-7.4 50.2-6.8 4.8-23.5 4.2-27.4 1.2-4-3.1-4.4-7-4.4-7s.6 6.3-5.5 10.7c-6 4.5-14.7 7-14.7 7s-1.3 1-1.1 2.7c.2 1.7 2.5 3.8 2.5 3.8s12.3-1 20 11.4c7.9 12.4 4 21 1.7 22.5-2.3 1.6-11.3.6-13.4-1.8l-7-8.7s.3 10.1-.5 14c-.8 4-2.8 8.9-2.8 8.9s8.7.8 12.3 4.8c3.6 4.1 11.4 14.7 7.5 20.7-3.9 6-29.7 7.3-31.8 5.4-2.1-2-8-4.5-8.2-9-.2-4.3-2.5-7.7-2.5-7.7z"/><path d="M89.7.5S60.2-2 51 13.3c-9.2 15.3-1.7-.3-1.7-.3S25.6-5 7.6 15.4c-18 20.3.6 45.2 7.4 50.1 6.8 5 23.5 4.3 27.4 1.2 3.9-3 4.4-6.9 4.4-6.9s-.6 6.2 5.5 10.7c6 4.5 14.6 6.9 14.6 6.9s1.4 1 1.2 2.8c-.2 1.7-2.6 3.8-2.6 3.8s-12.2-1.1-20 11.3c-7.8 12.5-3.9 21-1.6 22.6 2.3 1.6 11.3.6 13.4-1.8l7-8.7s-.4 10 .4 14 2.8 8.8 2.8 8.8-8.7.8-12.2 5c-3.6 4-11.4 14.6-7.5 20.5 3.9 6 29.7 7.3 31.8 5.4 2-1.9 8-4.5 8.2-8.8.2-4.4 2.4-7.8 2.4-7.8z"/></g><g fill="#44321e"><path d="M133.6 17.4s6.5 10 6.4 21.4c-.1 11.4-4.5 26-6.5 26s3-15.7 2.6-25c-.4-9.2-6.2-20.5-6.2-20.5s-1.3-2.5-.1-3.2c1.2-.7 3.8 1.3 3.8 1.3zM98.5 40.2s1.4 4 6 4c4.7 0 8.9-4.5 8.9-4.5s1-1.2 2.2 0c1.1 1-5.1 7.2-9.4 7.2-4.4 0-9.2-3.2-10.1-5.4-.9-2.2 1.1-2.7 1.1-2.7s.5 0 1.3 1.4zM87.4 49.7s4.1 2.7 4.2 4.1c0 1.5-3.8 2.2-3.8 2.2h-.5zM101.4 19s2.6-.6 4.3.7a7.2 7.2 0 0 1 2.2 3.7s-.7.2-3.3-1.5c-2.6-1.6-4.3-.9-4.3-.9s-1 0-1.2-1.1c-.1-1.2 2.3-1 2.3-1zM87 63.8s4.6-.8 5.8-2.1c1.1-1.3 2-.1 2-.1s-2.4 4.1-7.4 4.1-.5-2-.5-2zM110.5 102.6s2.6 6.8 2.4 12c-.3 5.1-1.5 13-3.2 14-1.8 1-5.5 2.7-5.5 4.7s1.6 3.7 5.1.9c3.6-2.9 6-2.7 6-2.7s-1.5-1.4-2-2.6c-.4-1.2 2.6-6.8 2.6-11.3 0-4.5-1.6-7.4-1.6-7.4s.5-2.8 2.4-1c1.8 1.8 0-4.4 0-4.4s-2.5-6.7-4.6-5.5c-2 1-1.6 3.3-1.6 3.3zM46.4 16.7S39.9 26.7 40 38c.1 11.4 4.5 26 6.5 26s-3-15.7-2.6-25c.4-9.3 6.2-20.5 6.2-20.5s1.3-2.5 0-3.2c-1.1-.7-3.7 1.3-3.7 1.3zM76.2 40.2s-1.4 4-6 4-8.8-4.4-8.8-4.4-1-1.3-2.2-.1c-1.2 1.1 5 7.3 9.4 7.3s9.2-3.3 10-5.5c1-2.2-1-2.6-1-2.6s-.6 0-1.4 1.3z"/><path d="M87.4 49.8s-4.1 2.6-4.2 4c0 1.6 3.8 2.2 3.8 2.2h.5zM73.4 19s-2.6-.6-4.3.8c-1.7 1.3-2.2 3.7-2.2 3.7s.7.2 3.3-1.5c2.6-1.7 4.3-1 4.3-1s1 0 1.1-1.1c.2-1.1-2.2-.9-2.2-.9zM87.9 63.8s-4.7-.7-5.9-2c-1.1-1.4-2-.2-2-.2s2.3 4.2 7.4 4.2c5 0 .5-2 .5-2zM68.5 102s-2.5 6.8-2.3 12c.2 5.1 1.4 13 3.1 14 1.8 1 5.5 2.7 5.5 4.7s-1.6 3.7-5.1.9c-3.5-2.9-6-2.7-6-2.7s1.5-1.4 2-2.6c.5-1.2-2.6-6.8-2.6-11.3 0-4.5 1.7-7.4 1.7-7.4s-.6-2.8-2.4-1c-1.9 1.8 0-4.4 0-4.4s2.4-6.7 4.5-5.5c2 1 1.6 3.3 1.6 3.3z"/></g></svg>